<svg id="visual" viewBox="0 0 1920 1080" width="1920" height="1080" xmlns="http://www.w3.org/2000/svg" xmlns:xlink="http://www.w3.org/1999/xlink" version="1.1"><path d="M0 131L175 131L349 109L524 77L698 131L873 239L1047 120L1222 152L1396 77L1571 217L1745 152L1920 174L1920 0L1745 0L1571 0L1396 0L1222 0L1047 0L873 0L698 0L524 0L349 0L175 0L0 0Z" fill="#023047"></path><path d="M0 336L175 465L349 509L524 411L698 487L873 444L1047 530L1222 390L1396 249L1571 465L1745 563L1920 573L1920 172L1745 150L1571 215L1396 75L1222 150L1047 118L873 237L698 129L524 75L349 107L175 129L0 129Z" fill="#014057"></path><path d="M0 433L175 627L349 671L524 573L698 563L873 509L1047 671L1222 476L1396 368L1571 584L1745 746L1920 649L1920 571L1745 561L1571 463L1396 247L1222 388L1047 528L873 442L698 485L524 409L349 507L175 463L0 334Z" fill="#005167"></path><path d="M0 627L175 843L349 876L524 876L698 757L873 779L1047 897L1222 660L1396 584L1571 714L1745 843L1920 919L1920 647L1745 744L1571 582L1396 366L1222 474L1047 669L873 507L698 561L524 571L349 669L175 625L0 431Z" fill="#006275"></path><path d="M0 1081L175 1081L349 1081L524 1081L698 1081L873 1081L1047 1081L1222 1081L1396 1081L1571 1081L1745 1081L1920 1081L1920 917L1745 841L1571 712L1396 582L1222 658L1047 895L873 777L698 755L524 874L349 874L175 841L0 625Z" fill="#037482"></path></svg>