<svg id="visual" viewBox="0 0 1920 900" width="1920" height="900" xmlns="http://www.w3.org/2000/svg" xmlns:xlink="http://www.w3.org/1999/xlink" version="1.1"><rect width="1920" height="900" fill="#023047"></rect><g><g transform="translate(1847 137)"><path d="M199.9 -119.9C237.7 -50 232.2 40.5 191.7 118C151.2 195.5 75.6 260 2 258.9C-71.7 257.8 -143.3 190.9 -185 112.8C-226.7 34.6 -238.4 -54.9 -202.6 -123.7C-166.8 -192.4 -83.4 -240.5 -1.2 -239.8C81.1 -239.1 162.1 -189.8 199.9 -119.9Z" fill="none" stroke="#fcce2d" stroke-width="3"></path></g><g transform="translate(141 781)"><path d="M182.6 -108.7C218.5 -43.3 216.8 40.4 180.1 109.6C143.4 178.8 71.7 233.5 -7.9 238C-87.4 242.6 -174.8 197 -216.2 125.1C-257.5 53.2 -252.8 -45 -209.1 -114.8C-165.4 -184.7 -82.7 -226.2 -4.6 -223.5C73.4 -220.8 146.8 -174 182.6 -108.7Z" fill="none" stroke="#fcce2d" stroke-width="3"></path></g><g transform="translate(1500 745)"><path d="M111.9 -61.2C135 -24.5 137 27.8 114.8 62.1C92.6 96.4 46.3 112.7 -0.2 112.8C-46.8 113 -93.5 97 -116.4 62.3C-139.3 27.6 -138.3 -25.9 -114.9 -62.7C-91.6 -99.5 -45.8 -119.7 -0.7 -119.3C44.4 -118.9 88.8 -97.9 111.9 -61.2Z" fill="none" stroke="#fcce2d" stroke-width="3"></path></g><g transform="translate(479 111)"><path d="M148.6 -88.6C180.8 -30.2 186.8 40.6 157.6 88.4C128.5 136.3 64.3 161.3 1.7 160.3C-60.9 159.3 -121.8 132.4 -150.4 84.8C-179.1 37.2 -175.6 -31.1 -145.2 -88.6C-114.7 -146.1 -57.4 -192.9 0.4 -193.1C58.2 -193.4 116.5 -147.1 148.6 -88.6Z" fill="none" stroke="#fcce2d" stroke-width="3"></path></g></g></svg>