<svg id="visual" viewBox="0 0 1920 1080" width="1920" height="1080" xmlns="http://www.w3.org/2000/svg" xmlns:xlink="http://www.w3.org/1999/xlink" version="1.1"><rect x="0" y="0" width="1920" height="1080" fill="#000000"></rect><path d="M1335 0L1231 120L1243 240L1294 360L1403 480L1116 600L1255 720L1184 840L1374 960L1474 1080L0 1080L0 960L0 840L0 720L0 600L0 480L0 360L0 240L0 120L0 0Z" fill="#ffffff"></path><path d="M958 0L1307 120L980 240L965 360L1150 480L1276 600L886 720L1016 840L1147 960L1278 1080L0 1080L0 960L0 840L0 720L0 600L0 480L0 360L0 240L0 120L0 0Z" fill="#dddddd"></path><path d="M839 0L975 120L836 240L986 360L865 480L1042 600L811 720L1075 840L744 960L840 1080L0 1080L0 960L0 840L0 720L0 600L0 480L0 360L0 240L0 120L0 0Z" fill="#bbbbbb"></path><path d="M626 0L750 120L590 240L772 360L847 480L691 600L792 720L788 840L716 960L686 1080L0 1080L0 960L0 840L0 720L0 600L0 480L0 360L0 240L0 120L0 0Z" fill="#9b9b9b"></path><path d="M452 0L437 120L421 240L604 360L391 480L547 600L435 720L542 840L450 960L414 1080L0 1080L0 960L0 840L0 720L0 600L0 480L0 360L0 240L0 120L0 0Z" fill="#7c7c7c"></path><path d="M331 0L334 120L173 240L192 360L269 480L261 600L343 720L170 840L253 960L298 1080L0 1080L0 960L0 840L0 720L0 600L0 480L0 360L0 240L0 120L0 0Z" fill="#5e5e5e"></path></svg>