<svg id="visual" viewBox="0 0 1920 1080" width="1920" height="1080" xmlns="http://www.w3.org/2000/svg" xmlns:xlink="http://www.w3.org/1999/xlink" version="1.1"><rect x="0" y="0" width="1920" height="1080" fill="#000000"></rect><path d="M1361 0L1272 120L1298 240L1309 360L1366 480L1322 600L1139 720L1047 840L1474 960L1180 1080L0 1080L0 960L0 840L0 720L0 600L0 480L0 360L0 240L0 120L0 0Z" fill="#e0a207"></path><path d="M1339 0L1000 120L1237 240L903 360L1075 480L1021 600L1208 720L1184 840L1112 960L1260 1080L0 1080L0 960L0 840L0 720L0 600L0 480L0 360L0 240L0 120L0 0Z" fill="#e5ac31"></path><path d="M808 0L937 120L1036 240L890 360L864 480L1085 600L859 720L725 840L761 960L807 1080L0 1080L0 960L0 840L0 720L0 600L0 480L0 360L0 240L0 120L0 0Z" fill="#eab74b"></path><path d="M798 0L482 120L731 240L781 360L787 480L845 600L490 720L758 840L773 960L614 1080L0 1080L0 960L0 840L0 720L0 600L0 480L0 360L0 240L0 120L0 0Z" fill="#efc163"></path><path d="M515 0L317 120L483 240L511 360L481 480L356 600L587 720L604 840L349 960L324 1080L0 1080L0 960L0 840L0 720L0 600L0 480L0 360L0 240L0 120L0 0Z" fill="#f4cb79"></path><path d="M316 0L369 120L271 240L273 360L238 480L256 600L332 720L329 840L207 960L145 1080L0 1080L0 960L0 840L0 720L0 600L0 480L0 360L0 240L0 120L0 0Z" fill="#f8d590"></path></svg>