<svg id="visual" viewBox="0 0 1920 1080" width="1920" height="1080" xmlns="http://www.w3.org/2000/svg" xmlns:xlink="http://www.w3.org/1999/xlink" version="1.1"><rect width="1920" height="1080" fill="#000"></rect><g><g transform="translate(260 581)"><path d="M0 -305.2L264.3 -152.6L264.3 152.6L0 305.2L-264.3 152.6L-264.3 -152.6Z" fill="none" stroke="#FFB703" stroke-width="2"></path></g><g transform="translate(1683 753)"><path d="M0 -259L224.3 -129.5L224.3 129.5L0 259L-224.3 129.5L-224.3 -129.5Z" fill="none" stroke="#FFB703" stroke-width="2"></path></g><g transform="translate(1074 47)"><path d="M0 -287L248.5 -143.5L248.5 143.5L0 287L-248.5 143.5L-248.5 -143.5Z" stroke="#FFB703" fill="none" stroke-width="2"></path></g><g transform="translate(864 1002)"><path d="M0 -274L237.3 -137L237.3 137L0 274L-237.3 137L-237.3 -137Z" stroke="#FFB703" fill="none" stroke-width="2"></path></g><g transform="translate(1828 68)"><path d="M0 -192L166.3 -96L166.3 96L0 192L-166.3 96L-166.3 -96Z" stroke="#FFB703" fill="none" stroke-width="2"></path></g></g></svg>