<svg id="visual" viewBox="0 0 1920 1080" width="1920" height="1080" xmlns="http://www.w3.org/2000/svg" xmlns:xlink="http://www.w3.org/1999/xlink" version="1.1"><rect x="0" y="0" width="1920" height="1080" fill="#000000"></rect><defs><linearGradient id="grad1_0" x1="43.8%" y1="100%" x2="100%" y2="0%"><stop offset="14.444444444444446%" stop-color="#000000" stop-opacity="1"></stop><stop offset="85.55555555555554%" stop-color="#000000" stop-opacity="1"></stop></linearGradient></defs><defs><linearGradient id="grad2_0" x1="0%" y1="100%" x2="56.3%" y2="0%"><stop offset="14.444444444444446%" stop-color="#000000" stop-opacity="1"></stop><stop offset="85.55555555555554%" stop-color="#000000" stop-opacity="1"></stop></linearGradient></defs><g transform="translate(1920, 1080)"><path d="M-756 0C-705.2 -56.3 -654.5 -112.7 -629.8 -168.8C-605.1 -224.8 -606.5 -280.6 -599.3 -346C-592.1 -411.4 -576.4 -486.5 -534.6 -534.6C-492.8 -582.7 -424.9 -603.8 -364.5 -631.3C-304.1 -658.9 -251 -692.9 -191.5 -714.8C-132 -736.6 -66 -746.3 0 -756L0 0Z" fill="#FFB703"></path></g><g transform="translate(0, 0)"><path d="M756 0C700.1 53.5 644.2 106.9 630.7 169C617.3 231.1 646.5 301.9 640.9 370C635.3 438.1 594.9 503.7 534.6 534.6C474.2 565.5 393.8 561.7 332 575C270.2 588.4 226.9 619 174.7 652C122.5 685 61.2 720.5 0 756L0 0Z" fill="#FFB703"></path></g></svg>